<svg width="32" height="32" viewBox="0 0 32 32" fill="none" xmlns="http://www.w3.org/2000/svg">
<path d="M16 11.59C17.3199 11.5743 18.5924 12.0811 19.54 13L25.19 18.71C25.3538 18.9013 25.4394 19.1474 25.4297 19.399C25.42 19.6507 25.3156 19.8895 25.1375 20.0675C24.9594 20.2456 24.7207 20.35 24.469 20.3597C24.2174 20.3694 23.9713 20.2838 23.78 20.12L18.12 14.46C17.5477 13.917 16.7889 13.6143 16 13.6143C15.2111 13.6143 14.4523 13.917 13.88 14.46L8.21998 20.12C8.02867 20.2838 7.7826 20.3694 7.53092 20.3597C7.27925 20.35 7.04051 20.2456 6.86241 20.0675C6.68432 19.8895 6.57999 19.6507 6.57026 19.399C6.56054 19.1474 6.64615 18.9013 6.80998 18.71L12.46 13C13.4076 12.0811 14.6801 11.5743 16 11.59Z" fill="black"/>
</svg>
