<svg width="32" height="32" viewBox="0 0 32 32" fill="none" xmlns="http://www.w3.org/2000/svg">
<path d="M5 15H25.41L20 9.63999C19.9063 9.54703 19.8319 9.43643 19.7811 9.31457C19.7304 9.19271 19.7042 9.062 19.7042 8.92999C19.7042 8.79798 19.7304 8.66727 19.7811 8.54542C19.8319 8.42356 19.9063 8.31296 20 8.21999C20.1874 8.03374 20.4408 7.9292 20.705 7.9292C20.9692 7.9292 21.2227 8.03374 21.41 8.21999L27.12 13.88C27.6818 14.4425 27.9974 15.205 27.9974 16C27.9974 16.795 27.6818 17.5575 27.12 18.12L21.46 23.78C21.2738 23.9647 21.0224 24.0689 20.76 24.07C20.6284 24.0708 20.4979 24.0455 20.3761 23.9958C20.2543 23.946 20.1435 23.8727 20.05 23.78C19.9563 23.687 19.8819 23.5764 19.8311 23.4546C19.7804 23.3327 19.7542 23.202 19.7542 23.07C19.7542 22.938 19.7804 22.8073 19.8311 22.6854C19.8819 22.5636 19.9563 22.453 20.05 22.36L25.41 17H5C4.73478 17 4.48043 16.8946 4.29289 16.7071C4.10536 16.5196 4 16.2652 4 16C4 15.7348 4.10536 15.4804 4.29289 15.2929C4.48043 15.1053 4.73478 15 5 15Z" fill="black"/>
</svg>
